<svg width="31" height="22" viewBox="0 0 31 22" fill="none" xmlns="http://www.w3.org/2000/svg">
<path fill-rule="evenodd" clip-rule="evenodd" d="M29.225 2.675C28.4112 1.2275 27.5281 0.96125 25.73 0.86C23.9338 0.738125 19.4169 0.6875 15.5037 0.6875C11.5831 0.6875 7.06437 0.738125 5.27 0.858125C3.47562 0.96125 2.59063 1.22562 1.76937 2.675C0.93125 4.12063 0.5 6.61062 0.5 10.9944V11.0094C0.5 15.3744 0.93125 17.8831 1.76937 19.3137C2.59063 20.7612 3.47375 21.0238 5.26813 21.1456C7.06437 21.2506 11.5831 21.3125 15.5037 21.3125C19.4169 21.3125 23.9338 21.2506 25.7319 21.1475C27.53 21.0256 28.4131 20.7631 29.2269 19.3156C30.0725 17.885 30.5 15.3762 30.5 11.0112V10.9963C30.5 6.61063 30.0725 4.12063 29.225 2.675Z" fill="#F44336"/>
<path fill-rule="evenodd" clip-rule="evenodd" d="M11.75 16.625V5.375L21.125 11L11.75 16.625Z" fill="#FAFAFA"/>
</svg>
