<svg width="826" height="592" viewBox="0 0 826 592" fill="none" xmlns="http://www.w3.org/2000/svg">
<g clip-path="url(#clip0_511_650)">
<path d="M484.419 117.912C485.831 118.3 487.14 118.994 488.255 119.943C489.37 120.892 490.263 122.074 490.872 123.406C491.48 124.738 491.789 126.187 491.777 127.651C491.765 129.115 491.433 130.559 490.802 131.881L506.109 148.898L498.036 160.722L476.758 136.387C474.608 135.181 472.975 133.228 472.168 130.898C471.362 128.568 471.438 126.024 472.382 123.747C473.327 121.469 475.073 119.618 477.292 118.542C479.51 117.467 482.046 117.243 484.419 117.912Z" fill="#A0616A"/>
<path d="M627.715 159.698C626.335 157.452 624.526 155.501 622.39 153.956C620.254 152.411 617.834 151.303 615.27 150.695C612.705 150.087 610.045 149.992 607.443 150.414C604.841 150.836 602.348 151.768 600.107 153.156L549.768 184.333L495.467 138.176L481.957 150.754L541.944 228.584L619.909 187.94C618.09 188.888 629.914 163.277 627.715 159.698Z" fill="#CCCCCC"/>
<path d="M527.991 263.364C527.996 288.226 523.103 312.845 513.591 335.815C504.079 358.786 490.135 379.657 472.555 397.237C454.975 414.816 434.104 428.761 411.134 438.272C388.164 447.784 363.545 452.677 338.683 452.672C234.132 452.672 149.375 367.915 149.375 263.364C149.357 243.028 152.617 222.821 159.03 203.522C171.62 165.831 195.74 133.052 227.979 109.819C260.218 86.5859 298.945 74.0755 338.683 74.0565C372.955 74.0446 406.586 83.3396 435.988 100.949C465.389 118.559 489.457 143.822 505.621 174.043C509.629 181.499 513.125 189.218 516.086 197.149C516.496 198.253 516.896 199.357 517.285 200.472V200.483C519.02 205.384 520.549 210.376 521.87 215.459C525.947 231.101 528.004 247.2 527.991 263.364Z" fill="#3F3D56"/>
<path d="M317.972 135.641C309.464 131.04 300.019 128.443 290.355 128.048C280.691 127.652 271.065 129.469 262.21 133.359C254.414 136.752 246.204 142.839 243.604 153.83C254.123 147.623 267.739 157.431 270.446 173.166L269.814 173.34C268.384 184.239 271.576 196.105 277.755 202.863C278.566 195.843 283.182 191.065 287.721 188.081C292.261 185.097 297.283 182.929 300.749 177.799C304.856 171.718 305.9 162.83 307.531 154.722C309.163 146.614 312.259 137.9 317.972 135.641Z" fill="white"/>
<path d="M259.091 228.385C256.178 232.76 252.286 235.505 248.795 238.923C245.314 242.351 242.001 246.979 241.307 252.921C240.865 256.728 241.548 260.598 241.454 264.448C241.359 268.297 240.076 272.63 237.457 273.587C233.324 275.08 230.169 267.403 225.92 266.867C222.544 266.446 219.505 271.757 220.483 276.364C221.461 280.97 226.057 283.01 228.697 280.002C231.084 284.009 229.401 291.277 225.815 292.507C225.436 295.031 225.058 297.545 224.69 300.069C215.624 293.727 206.463 287.28 198.754 277.994C190.181 267.753 184.863 255.184 183.484 241.899C182.484 231.224 183.967 219.014 179.066 210.8C175.143 204.227 168.412 202.775 162.355 203.186C161.25 203.259 160.136 203.385 159.031 203.522C162.604 192.792 167.141 182.408 172.588 172.497C173.82 171.968 174.966 171.255 175.985 170.383C181.622 165.597 184.125 155.911 188.7 149.212C188.994 148.78 189.299 148.36 189.615 147.95C194.295 141.839 200.563 138.695 206.621 135.771C220.03 129.261 233.829 122.667 247.985 123.571L243.957 123.96C239.256 137.128 234.551 150.295 229.843 163.462C229.128 165.482 228.406 167.504 227.676 169.531C225.005 177.019 222.25 184.991 222.66 193.373C222.902 198.337 224.626 203.638 227.908 205.342C230.968 206.919 234.313 204.984 237.268 203.07C238.52 202.27 239.761 201.471 241.012 200.661C245.503 197.769 250.477 194.803 255.221 196.738C259.564 198.505 262.772 204.405 263.382 210.768C263.941 216.954 262.432 223.149 259.091 228.385Z" fill="white"/>
<path d="M285.799 318.282C272.683 310.206 259.567 302.131 246.451 294.055L246.674 293.482C238.519 296.588 235.133 311.083 236.481 322.938C237.829 334.792 242.399 345.389 244.707 356.94C247.82 372.746 246.645 389.098 241.304 404.297C258.551 384.946 273.814 363.914 286.865 341.517C288.688 338.694 290.077 335.614 290.986 332.379C291.819 328.937 291.691 324.799 290.022 322.039C288.949 320.455 287.497 319.164 285.799 318.282Z" fill="white"/>
<path d="M234.036 171.363C232.644 174.494 232.108 178.67 233.372 181.91C234.662 185.219 237.391 186.714 239.903 187.959L247.15 191.551C249.561 192.746 252.16 193.953 254.618 192.97C257.582 191.784 259.638 187.137 259.106 182.822C258.54 178.231 255.646 175.073 252.97 172.384C249.224 168.62 245.479 164.857 241.733 161.093L239.622 163.678C237.339 165.905 235.45 168.504 234.036 171.363Z" fill="white"/>
<path d="M489.141 220.444C492.402 221.212 495.662 221.979 498.922 222.747C498.354 233.759 492.896 243.95 485.576 247.641C482.526 249.177 479.129 249.745 476.605 252.616C474.323 255.224 473.166 259.284 472.104 263.164C470.242 269.938 468.381 276.711 466.519 283.483C464.521 290.782 461.955 298.891 456.759 301.52C452.3 303.782 447.199 301.015 443.771 296.377C440.342 291.739 438.249 285.503 436.219 279.424C436.345 286.05 433.264 292.549 428.899 294.852C424.524 297.156 419.203 295.073 416.279 289.931C414.175 286.239 413.303 281.369 411.241 277.625C409.18 273.881 404.857 271.736 402.607 275.249C401.124 277.583 401.313 281.159 400.577 284.125C399.43 288.731 395.96 291.624 392.521 291.876C389.092 292.129 385.748 290.151 382.877 287.469C376.955 281.916 372.591 273.103 370.898 263.312C370.151 258.947 369.941 254.193 371.234 250.102C372.528 246.011 375.651 242.856 378.754 243.634C380.794 239.322 376.766 233.601 373.138 234.106C369.499 234.61 366.649 238.512 363.662 241.51C360.685 244.507 356.521 246.684 353.523 243.708C353.544 246.474 351.294 248.304 349.348 248.072C347.413 247.852 345.688 246.295 343.911 245.191C337.043 240.91 328.324 243.75 323.444 251.848C326.494 238.87 330.964 223.978 340.335 220.928C344.163 219.676 348.338 220.707 351.956 218.54C358.361 214.702 359.655 200.198 354.123 194.214C354.827 199.872 354.691 206.477 351.704 210.347C348.717 214.218 342.449 211.694 342.827 205.972C341.965 209.916 337.674 210.516 335.697 207.487C333.709 204.458 333.877 199.504 335.287 195.886C336.696 192.268 339.094 189.671 341.418 187.178C346.414 181.825 351.483 176.409 357.267 173.043C363.062 169.678 369.751 168.542 375.557 171.886C378.617 173.653 381.31 176.598 384.433 178.155C387.557 179.722 391.522 179.522 393.594 175.862C395.918 171.781 394.824 165.723 395.686 160.623C397.232 151.609 406.245 147.392 411.241 153.345C407.508 152.388 403.648 156.805 403.185 162.158C402.712 167.511 405.415 172.917 409.033 174.537C415.111 177.229 421.064 170.456 425.66 164.188C430.456 157.625 435.259 151.066 440.069 144.51C440.837 143.394 441.699 142.346 442.645 141.376C444.152 139.908 446.16 139.067 448.263 139.024C450.366 138.981 452.407 139.739 453.972 141.145C458.831 145.11 461.113 153.24 465.099 158.835C470.884 166.964 479.539 168.942 487.595 170.519C493.601 171.687 499.609 172.861 505.622 174.042C509.63 181.498 513.126 189.218 516.086 197.149C505.906 201.471 496.514 209.559 489.141 220.444Z" fill="white"/>
<path d="M508.556 346.986C504.05 356.135 498.81 364.904 492.886 373.205C489.1 371.585 485.029 374.478 481.485 377.191C477.783 380.031 473.334 382.797 469.538 380.21C465.657 377.559 464.405 370.145 465.636 364.266C466.866 358.397 469.937 353.727 472.914 349.289C476.069 344.578 479.445 339.687 483.831 337.857C488.227 336.027 493.874 338.614 495.157 344.862L498.271 344.756C496.525 342.358 497.44 337.394 499.785 336.521C502.488 335.501 504.833 339.214 506.432 342.495C507.147 343.978 507.873 345.472 508.556 346.986Z" fill="white"/>
<path d="M389.328 302.562C382.637 302.983 377.337 294.746 373.815 286.642C370.292 278.538 367.079 269.271 361.041 265.146C357.591 262.79 353.658 262.466 349.916 261.324C346.174 260.182 342.258 257.819 340.469 253.006L336.224 251.291C330.619 254.443 324.939 257.653 320.109 262.782C314.691 268.537 311.317 275.914 310.506 283.776C309.695 292.272 312.689 301.745 318.284 304.937C322.705 307.459 327.851 305.869 332.329 308.178C337.924 311.062 341.245 319.442 342.502 327.715C343.76 335.988 343.441 344.586 344.341 352.953C345.24 361.32 347.719 370.027 352.85 374.314C359.27 379.68 368.691 375.221 371.572 365.454C372.985 360.663 372.936 355.257 373.993 350.283C375.854 341.525 380.876 335.027 384.859 327.842C388.842 320.658 391.977 310.9 389.328 302.562Z" fill="white"/>
<path d="M323.208 216.499C323.832 217.074 324.415 217.692 324.951 218.349C325.506 219.306 325.789 220.396 325.77 221.502C325.751 222.608 325.431 223.688 324.844 224.625C325.65 224.579 326.437 224.367 327.157 224.001C327.877 223.635 328.513 223.124 329.025 222.5C330.246 221.109 331.321 219.596 332.231 217.984C332.913 216.871 333.639 215.367 333.176 214.045C332.86 213.143 332.112 212.758 331.588 212.079C330.758 211.004 330.552 209.296 330.122 207.82C329.194 204.632 326.969 202.288 324.555 201.953L324.89 202.017C323.882 202.363 323.177 203.964 323.4 205.405C323.603 206.718 324.447 207.807 324.363 209.146C324.242 211.071 322.319 211.974 322.2 213.899C322.181 214.865 322.543 215.799 323.208 216.499Z" fill="white"/>
<path d="M311.744 183.791C311.754 183.788 311.764 183.788 311.774 183.785C311.98 183.598 312.171 183.394 312.345 183.177L311.744 183.791Z" fill="#E6E6E6"/>
<path d="M313.75 192.826C315.23 191.874 316.056 189.243 315.567 187.041C315.081 184.852 313.36 183.381 311.774 183.785C311.313 184.252 310.742 184.594 310.113 184.779C309.484 184.964 308.818 184.986 308.179 184.844C307.197 184.591 306.12 183.941 305.269 184.68C304.783 185.232 304.442 185.897 304.279 186.615C303.964 187.581 303.649 188.548 303.334 189.515C303.184 189.861 303.145 190.245 303.222 190.614C303.282 190.762 303.38 190.892 303.505 190.991C303.63 191.091 303.778 191.156 303.936 191.182C305.826 191.739 307.715 192.296 309.605 192.853C310.982 193.259 312.469 193.65 313.75 192.826Z" fill="white"/>
<path d="M456.406 317.557C455.533 316.127 454.659 314.697 453.786 313.267C452.928 311.611 451.755 310.138 450.333 308.931C450.02 308.669 449.658 308.473 449.268 308.353C448.878 308.233 448.469 308.192 448.063 308.232C447.657 308.273 447.263 308.394 446.905 308.589C446.547 308.784 446.231 309.049 445.977 309.368L446.083 310.185C448.074 312.683 450.18 315.457 450.685 319.165C450.885 320.626 450.815 322.139 450.99 323.607C451.165 325.075 451.661 326.597 452.608 327.23C453.984 328.149 455.599 326.794 456.578 325.141C457.453 323.783 457.846 322.17 457.692 320.562C457.474 319.483 457.036 318.46 456.406 317.557Z" fill="white"/>
<path d="M495.281 262.94C495.534 261.283 495.786 259.627 496.039 257.97C496.449 256.151 496.5 254.268 496.189 252.429C496.119 252.028 495.969 251.644 495.748 251.301C495.527 250.958 495.24 250.663 494.903 250.433C494.566 250.203 494.187 250.042 493.787 249.96C493.388 249.879 492.976 249.878 492.576 249.958L492.131 250.652C492.046 253.845 491.87 257.324 489.869 260.486C489.081 261.732 488.053 262.845 487.242 264.08C486.43 265.316 485.83 266.8 486.147 267.894C486.607 269.483 488.715 269.486 490.529 268.852C492.073 268.377 493.412 267.396 494.33 266.067C494.858 265.101 495.182 264.036 495.281 262.94Z" fill="#E6E6E6"/>
<path d="M470.109 319.419C470.536 318.191 469.919 316.783 469.789 315.426C469.727 313.673 470.191 311.942 471.123 310.457C472.048 309.055 472.75 307.518 473.201 305.9C473.392 305.163 473.357 304.386 473.102 303.669C472.812 303.019 472.112 302.723 471.71 303.237L472.57 303.791C471.409 303.584 470.217 303.642 469.081 303.96C468.434 304.208 467.855 304.608 467.395 305.127C466.935 305.646 466.606 306.268 466.437 306.941C466.295 307.989 466.063 309.024 465.744 310.033C465.231 311.087 464.239 311.438 463.615 312.363C463.189 313.183 462.975 314.096 462.99 315.02C463.005 315.944 463.25 316.849 463.703 317.655C464.486 318.972 465.731 319.952 467.196 320.402C468.246 320.779 469.629 320.799 470.109 319.419Z" fill="white"/>
<path d="M494.511 326.781C494.891 327.769 495.399 328.702 496.023 329.556C497.192 330.733 498.779 330.01 500.197 329.724C501.483 329.521 502.8 329.669 504.008 330.154C505.217 330.639 506.272 331.441 507.061 332.477C506.511 329.736 505.312 327.167 503.563 324.985C501.815 322.804 499.568 321.074 497.012 319.94C493.671 318.578 490.153 318.447 486.678 318.324L486.078 318.478C487.607 322.93 492.409 322.83 494.511 326.781Z" fill="white"/>
<path d="M391.159 335.886L391.168 335.905C391.226 335.793 391.284 335.681 391.343 335.569L391.159 335.886Z" fill="#E6E6E6"/>
<path d="M387.457 343.052C386.65 344.517 385.956 346.042 385.38 347.614C384.619 350.159 384.115 352.774 383.875 355.42C383.687 356.925 383.629 358.846 384.572 359.579C384.842 359.759 385.169 359.834 385.491 359.79C385.813 359.746 386.108 359.587 386.321 359.342C386.844 358.788 387.273 358.151 387.589 357.457C389.441 354.266 390.88 350.853 391.869 347.298C392.771 343.554 392.763 339.147 391.168 335.906C389.931 338.288 388.694 340.67 387.457 343.052Z" fill="white"/>
<path d="M351.745 152.149C352.333 152.724 353.076 153.114 353.883 153.272C354.69 153.429 355.526 153.347 356.287 153.036C357.863 152.347 359.309 151.392 360.561 150.213C361.598 149.446 362.477 148.486 363.151 147.387C363.523 146.73 363.761 146.006 363.852 145.256C363.943 144.507 363.885 143.747 363.681 143.02C363.096 141.308 361.611 140.735 360.301 140.346C358.203 139.724 356.106 139.102 354.009 138.48L355.526 137.113C353.965 136.275 352.238 137.83 351.262 139.755C350.636 141.012 350.2 142.354 349.968 143.739C349.445 146.761 349.956 150.359 351.745 152.149Z" fill="#E6E6E6"/>
<path d="M388.775 139.718C389.366 140.37 390.183 140.772 391.06 140.843C391.937 140.915 392.809 140.65 393.497 140.102C394.09 139.657 394.583 139.092 394.942 138.443C395.302 137.795 395.522 137.079 395.586 136.34C395.734 134.69 394.919 132.856 393.754 132.714L394.02 131.169C391.776 130.764 389.014 130.683 387.811 133.408C387.406 134.452 387.281 135.584 387.45 136.692C387.619 137.799 388.076 138.842 388.775 139.718Z" fill="#E6E6E6"/>
<path d="M383.828 57.5741C370.67 56.0899 357.462 59.8934 347.109 68.1477C336.755 76.4021 330.105 88.4313 328.621 101.589C325.53 128.988 339.965 188.487 366.283 213.117C378.674 165.928 422.097 137.938 427.843 112.781C433.982 85.9003 411.227 60.6648 383.828 57.5741Z" fill="#0A5CA5"/>
<path d="M374.728 118.486C383.72 118.486 391.01 111.196 391.01 102.203C391.01 93.2109 383.72 85.921 374.728 85.921C365.735 85.921 358.445 93.2109 358.445 102.203C358.445 111.196 365.735 118.486 374.728 118.486Z" fill="white"/>
<path d="M357.608 236.594C363.498 236.594 368.273 231.819 368.273 225.929C368.273 220.039 363.498 215.265 357.608 215.265C351.718 215.265 346.943 220.039 346.943 225.929C346.943 231.819 351.718 236.594 357.608 236.594Z" fill="#0A5CA5"/>
<path opacity="0.2" d="M388.2 90.5379C390.033 91.6392 391.631 93.0907 392.903 94.8095C394.175 96.5284 395.095 98.4809 395.613 100.556C396.13 102.63 396.233 104.787 395.917 106.901C395.601 109.016 394.872 111.048 393.77 112.88C392.669 114.713 391.217 116.311 389.499 117.583C387.78 118.855 385.827 119.776 383.753 120.293C379.563 121.337 375.129 120.675 371.428 118.45C375.202 119.29 379.151 118.759 382.57 116.953C385.988 115.146 388.652 112.182 390.084 108.591C391.517 105 391.624 101.017 390.388 97.3534C389.152 93.6902 386.652 90.5865 383.337 88.5978C385.052 88.9779 386.694 89.6331 388.2 90.5379Z" fill="#231F20"/>
<path opacity="0.2" d="M427.906 112.834C422.161 137.991 378.738 165.981 366.346 213.17C363.871 210.831 361.572 208.313 359.469 205.635C373.393 161.278 414.114 134.326 419.665 110.02C424.634 88.2656 410.677 67.591 390.65 58.8574C414.892 64.9514 433.533 88.2 427.906 112.834Z" fill="#231F20"/>
<path d="M231.245 121.106C221.364 119.991 211.445 122.847 203.67 129.046C195.895 135.245 190.901 144.278 189.787 154.159C187.466 174.735 198.306 219.417 218.069 237.913C227.375 202.476 259.984 181.456 264.299 162.564C268.909 142.378 251.821 123.427 231.245 121.106Z" fill="#0A5CA5"/>
<path d="M224.411 166.848C231.164 166.848 236.639 161.374 236.639 154.621C236.639 147.868 231.164 142.393 224.411 142.393C217.658 142.393 212.184 147.868 212.184 154.621C212.184 161.374 217.658 166.848 224.411 166.848Z" fill="white"/>
<path d="M211.556 255.543C215.979 255.543 219.564 251.958 219.564 247.535C219.564 243.112 215.979 239.526 211.556 239.526C207.133 239.526 203.547 243.112 203.547 247.535C203.547 251.958 207.133 255.543 211.556 255.543Z" fill="#0A5CA5"/>
<path opacity="0.2" d="M234.529 145.86C235.906 146.687 237.105 147.777 238.061 149.068C239.016 150.359 239.707 151.825 240.096 153.383C240.484 154.941 240.562 156.561 240.324 158.149C240.087 159.737 239.539 161.262 238.712 162.639C237.885 164.015 236.795 165.215 235.504 166.17C234.213 167.125 232.747 167.817 231.189 168.205C229.631 168.594 228.012 168.671 226.424 168.434C224.836 168.197 223.31 167.649 221.934 166.822C224.768 167.452 227.734 167.053 230.301 165.697C232.868 164.34 234.868 162.114 235.944 159.418C237.02 156.721 237.101 153.729 236.172 150.979C235.244 148.228 233.367 145.897 230.877 144.403C232.165 144.689 233.398 145.181 234.529 145.86Z" fill="#231F20"/>
<path opacity="0.2" d="M264.348 162.604C260.033 181.496 227.424 202.515 218.118 237.952C216.259 236.196 214.533 234.305 212.953 232.294C223.41 198.984 253.99 178.744 258.158 160.491C261.89 144.154 251.409 128.628 236.369 122.069C254.574 126.646 268.573 144.105 264.348 162.604Z" fill="#231F20"/>
<path d="M614.063 564.054H600.638L594.251 512.27L614.066 512.271L614.063 564.054Z" fill="#A0616A"/>
<path d="M621.285 589.546H611.759L610.058 580.552L605.703 589.546H580.437C579.226 589.546 578.046 589.159 577.071 588.441C576.095 587.723 575.375 586.712 575.014 585.556C574.654 584.4 574.672 583.159 575.067 582.014C575.462 580.869 576.213 579.88 577.209 579.192L597.386 565.257V556.165L618.609 557.431L621.285 589.546Z" fill="#2F2E41"/>
<path d="M562.063 564.054H548.638L542.251 512.27L562.066 512.271L562.063 564.054Z" fill="#A0616A"/>
<path d="M569.285 589.546H559.759L558.058 580.552L553.703 589.546H528.437C527.226 589.546 526.046 589.159 525.071 588.441C524.095 587.723 523.375 586.712 523.014 585.556C522.654 584.4 522.672 583.159 523.067 582.014C523.462 580.869 524.213 579.88 525.209 579.192L545.386 565.257V556.165L566.609 557.431L569.285 589.546Z" fill="#2F2E41"/>
<path d="M511.058 427.333C513.628 431.187 541.577 537.127 541.577 537.127L566.36 539.953L563.418 513.297L558.922 466.128L551.96 434.642C551.96 434.642 576.547 378.686 578.101 374.228L579.206 371.03L586.888 440.744C587.8 443.233 588.198 445.882 588.057 448.529C587.825 452.884 592.193 518.397 592.193 518.397L594.293 541.892L615.526 544.842L624.141 504.19C631.334 490.984 627.211 444.058 624.269 439.691C621.328 435.323 622.496 404.904 622.496 404.904C626.253 403.582 648.653 327.198 637.449 327.649C638.168 323.577 638.733 319.941 638.733 319.941L619.285 304.257L570.612 291.604L558.332 285.707C558.332 285.707 536.4 326.262 536.619 328.279C536.921 330.833 536.336 333.414 534.962 335.588L512.818 409.696C512.818 409.696 508.464 423.441 511.058 427.333Z" fill="#2F2E41"/>
<path d="M633.342 162.148L625.598 145.707L599.244 146.72L590.648 163.824C590.648 163.824 566.081 193.166 565.286 202.707C564.286 214.707 572.597 273.52 564.286 269.707C564.286 269.707 544.691 292.707 556.286 292.707C567.88 292.707 620.328 325.631 623.77 329.334C627.211 333.036 642.574 335.437 641.286 327.707C639.997 319.978 633.342 278.174 633.342 278.174L651.36 212.441C656.546 198.249 658.16 182.33 646.437 172.797L633.342 162.148Z" fill="#CCCCCC"/>
<path d="M535.722 113.76C532.197 112.361 528.431 111.669 524.639 111.725C520.847 111.782 517.103 112.584 513.621 114.087C510.139 115.591 506.987 117.765 504.345 120.486C501.703 123.207 499.623 126.422 498.224 129.947C492.339 144.772 491.364 180.176 502.315 197.919C516.396 173.46 544.884 164.428 551.91 151.258C559.418 137.185 550.547 119.645 535.722 113.76Z" fill="#0A5CA5"/>
<path d="M523.867 146.709C529.069 146.709 533.286 142.492 533.286 137.29C533.286 132.088 529.069 127.871 523.867 127.871C518.665 127.871 514.448 132.088 514.448 137.29C514.448 142.492 518.665 146.709 523.867 146.709Z" fill="white"/>
<path d="M495.528 209.923C498.935 209.923 501.697 207.161 501.697 203.754C501.697 200.347 498.935 197.585 495.528 197.585C492.12 197.585 489.358 200.347 489.358 203.754C489.358 207.161 492.12 209.923 495.528 209.923Z" fill="#0A5CA5"/>
<path opacity="0.2" d="M533.158 132.824C534.884 134.628 535.823 137.043 535.768 139.539C535.714 142.034 534.671 144.407 532.869 146.134C531.067 147.861 528.653 148.802 526.157 148.751C523.661 148.699 521.288 147.659 519.559 145.858C521.538 146.9 523.823 147.203 526.005 146.713C528.187 146.224 530.124 144.974 531.469 143.187C532.814 141.4 533.479 139.193 533.345 136.96C533.211 134.728 532.287 132.616 530.738 131.002C531.638 131.475 532.455 132.09 533.158 132.824Z" fill="#231F20"/>
<path opacity="0.2" d="M551.937 151.297C544.911 164.467 516.423 173.499 502.343 197.958C501.316 196.277 500.415 194.522 499.647 192.708C514.154 170.063 540.975 161.2 547.764 148.475C553.84 137.086 549.188 123.427 539.336 115.512C551.942 122.594 558.818 138.401 551.937 151.297Z" fill="#231F20"/>
<path d="M492.748 201.63C494.182 201.334 495.663 201.357 497.088 201.696C498.512 202.034 499.845 202.682 500.993 203.591C502.14 204.501 503.074 205.651 503.729 206.961C504.383 208.271 504.743 209.708 504.782 211.172L526.151 219.374L524.333 233.575L494.32 221.568C491.856 221.471 489.514 220.474 487.737 218.765C485.96 217.056 484.871 214.755 484.678 212.297C484.484 209.84 485.198 207.396 486.686 205.43C488.173 203.464 490.33 202.112 492.748 201.63Z" fill="#A0616A"/>
<path d="M642.053 172.365C639.803 170.991 637.304 170.076 634.7 169.67C632.095 169.264 629.436 169.377 626.875 170.001C624.314 170.625 621.902 171.749 619.776 173.308C617.65 174.866 615.853 176.829 614.488 179.084L583.816 229.733L514.47 213.296L508.152 230.64L596.958 272.706L641.935 201.069C648.669 191.605 651.966 178.417 642.053 172.365Z" fill="#CCCCCC"/>
<path d="M643.198 110.293C643.2 115.175 642.004 119.982 639.714 124.293C637.424 128.605 634.111 132.288 630.065 135.02C626.019 137.751 621.365 139.448 616.51 139.962C611.656 140.475 606.749 139.788 602.222 137.963C597.695 136.137 593.685 133.228 590.544 129.49C587.403 125.753 585.228 121.302 584.209 116.528C583.191 111.754 583.359 106.803 584.701 102.109C586.042 97.4151 588.515 93.1224 591.903 89.6076L592.046 89.4646C592.285 89.214 592.524 88.9636 592.774 88.7249C592.776 88.7249 592.777 88.7246 592.779 88.724C592.78 88.7234 592.781 88.7226 592.783 88.7215C592.784 88.7203 592.784 88.719 592.785 88.7176C592.786 88.7161 592.786 88.7145 592.786 88.713C593.096 88.4267 593.406 88.1404 593.728 87.866C598.038 84.0879 603.345 81.6319 609.014 80.7919C614.683 79.952 620.474 80.7638 625.694 83.1301C630.914 85.4964 635.341 89.317 638.445 94.1344C641.55 98.9518 643.2 104.562 643.198 110.293Z" fill="#2F2E41"/>
<path d="M606.028 142.201C619.84 142.201 631.036 131.004 631.036 117.193C631.036 103.382 619.84 92.1853 606.028 92.1853C592.217 92.1853 581.021 103.382 581.021 117.193C581.021 131.004 592.217 142.201 606.028 142.201Z" fill="#9E616A"/>
<path d="M632.584 124.325L628.441 123.593C626.126 123.172 623.994 122.054 622.331 120.389C620.669 118.724 619.554 116.591 619.136 114.276L615.093 121.051L614.916 121.11C605.284 124.308 595.261 123.352 584.283 118.19C581.144 116.701 578.099 115.022 575.164 113.162L574.948 113.027L574.93 112.773C574.371 104.637 576.196 97.841 580.072 93.6354C581.56 92.0531 583.365 90.8031 585.37 89.9674C587.375 89.1316 589.534 88.729 591.705 88.7858C591.86 88.7454 592.002 88.6671 592.119 88.5578C592.174 88.5168 592.23 88.4763 592.286 88.4377V88.3957L592.573 88.2604C593.19 87.9704 593.819 87.6925 594.448 87.4386C599.396 85.5231 604.784 85.0425 609.994 86.0523C615.203 87.062 620.022 89.521 623.896 93.1466C631.599 100.501 635.132 112.842 632.688 123.858L632.584 124.325Z" fill="#2F2E41"/>
<path d="M685.331 145.632C676.821 141.239 687.765 125.297 685.566 115.976C683.367 106.656 667.529 103.658 666.52 94.1341C665.511 84.6106 663.138 74.7881 656.853 67.5616C652.838 62.9439 646.921 59.5349 640.828 60.1133C638.767 60.309 636.772 60.9467 634.98 61.9829C633.187 63.019 631.639 64.4294 630.44 66.1178C629.242 67.8063 628.422 69.7332 628.035 71.7674C627.648 73.8015 627.705 75.895 628.2 77.9054C626.466 75.4477 621.977 75.9803 620.866 78.7759C619.878 81.2612 622.06 84.2716 624.628 84.4915C627.989 88.6415 631.837 93.0458 637.101 93.8829C637.94 94.0756 638.812 94.0751 639.651 93.8815C640.489 93.6879 641.273 93.3064 641.942 92.7656C643.181 91.5762 643.277 89.1982 641.808 88.3093C648.424 90.9375 652.303 98.0909 653.285 105.142C654.266 112.193 652.908 119.327 652.013 126.39C651.118 133.452 650.733 140.882 653.502 147.44C656.774 155.189 664.306 160.743 672.527 162.524C680.748 164.305 689.503 162.564 696.944 158.642C704.385 154.72 710.59 148.733 715.659 142.021C706.927 148.221 694.847 150.543 685.331 145.632Z" fill="#2F2E41"/>
<path d="M631.52 123.63C631.52 123.63 624.111 95.9779 592.356 89.5957C592.32 89.5839 592.201 89.5362 592.046 89.4647C591.951 89.405 591.831 89.3453 591.712 89.2857C592.07 89.0829 592.416 88.904 592.774 88.7249L592.778 88.7241L592.782 88.7215L592.785 88.7176L592.786 88.713C593.096 88.4267 593.406 88.1404 593.728 87.8661L594.635 87.9019C594.635 87.9019 626.497 82.8559 631.52 123.63Z" fill="#FD6584"/>
<path opacity="0.2" d="M614.934 212.357L596.999 233.136L567.364 224.385L599.671 239.273L614.934 212.357Z" fill="black"/>
<path d="M722.586 591.112L446.836 591.419C446.521 591.418 446.219 591.292 445.996 591.069C445.773 590.846 445.648 590.543 445.648 590.228C445.648 589.913 445.773 589.611 445.996 589.388C446.219 589.164 446.521 589.038 446.836 589.038L722.586 588.73C722.901 588.73 723.204 588.856 723.428 589.079C723.651 589.302 723.776 589.605 723.776 589.921C723.776 590.237 723.651 590.54 723.428 590.763C723.204 590.986 722.901 591.112 722.586 591.112Z" fill="#CACACA"/>
<path d="M734.69 406.072C721.778 406.072 707.626 405.584 692.234 404.608C612.62 399.552 509.496 381.975 401.858 355.116C294.22 328.256 194.927 295.322 122.272 262.381C86.8795 246.335 59.7159 231.145 41.5367 217.234C22.2896 202.507 13.8707 189.67 16.5128 179.081C21.6608 158.452 67.2438 153.939 104.577 153.786L104.589 156.786C53.3214 156.996 23.0758 165.172 19.4239 179.808C14.7721 198.448 52.7106 227.548 123.511 259.649C196.006 292.517 295.116 325.388 402.584 352.206C510.051 379.022 612.985 396.569 692.424 401.614C770.003 406.542 817.167 398.676 821.818 380.036C825.68 364.559 800.22 341.76 750.129 315.838L751.508 313.173C787.905 332.009 830.153 359.025 824.73 380.762C822.087 391.351 808.624 398.727 784.715 402.685C771.085 404.941 754.344 406.072 734.69 406.072Z" fill="#0A5CA5"/>
</g>
<defs>
<clipPath id="clip0_511_650">
<rect width="825.202" height="591.419" fill="white"/>
</clipPath>
</defs>
</svg>
