<svg width="901" height="787" viewBox="0 0 901 787" fill="none" xmlns="http://www.w3.org/2000/svg">
<g clip-path="url(#clip0_511_600)">
<path d="M503.08 57.5699C523.122 57.5699 542.344 65.5318 556.516 79.7039C570.688 93.876 578.65 113.098 578.65 133.14V165.38H427.51V133.14C427.51 113.098 435.472 93.876 449.644 79.7039C463.816 65.5318 483.037 57.5699 503.08 57.5699Z" fill="#CACACA"/>
<path d="M503.609 235.14C551.183 235.14 589.749 208.64 589.749 175.95C589.749 143.26 551.183 116.76 503.609 116.76C456.035 116.76 417.469 143.26 417.469 175.95C417.469 208.64 456.035 235.14 503.609 235.14Z" fill="#CACACA"/>
<path d="M448.39 233.29C448.39 233.29 466.39 327.36 448.39 352.73C430.39 378.1 503.39 388.14 503.39 388.14L578.95 360.66L589.52 293.01C589.52 293.01 543.52 267.11 553.05 214.79L448.39 233.29Z" fill="#FFB9B9"/>
<path d="M671.41 550.39C671.41 550.39 676.17 571 650.27 574.7C634.978 576.95 619.425 576.764 604.19 574.15L598.48 522.38H658.73L671.41 550.39Z" fill="#FFB9B9"/>
<path d="M214.07 524.01C214.07 524.01 202.63 570.5 228.53 574.7C254.43 578.9 349.53 578.93 349.53 578.93V523.93L306.47 533.13L266.05 494.37L214.07 524.01Z" fill="#FFB9B9"/>
<path opacity="0.1" d="M453.95 263.68L352.74 285.08C352.74 285.08 314.16 286.67 289.32 337.93C264.48 389.19 210.57 535.59 210.57 535.59C210.57 535.59 256.57 489.08 310.46 538.76L346.4 473.76L338.47 576.82H616.95V528.19C616.95 528.19 675.08 559.37 670.86 576.81C670.86 576.81 720.61 448.63 709.86 390.38C706.624 372.372 704.639 354.162 703.92 335.88C703.285 320.823 698.006 306.331 688.807 294.394C679.607 282.457 666.939 273.66 652.54 269.21C647.3 267.6 641.54 266.09 635.14 264.74C575.42 252.06 560.14 264.74 560.14 264.74C560.14 264.74 548.57 302.38 548.78 319.44C549.04 341.37 517.6 355.91 517.6 355.91C517.6 355.91 471.09 344.81 468.98 335.83C466.87 326.85 450.23 274.25 453.95 263.68Z" fill="black"/>
<path d="M453.951 261.57L352.741 282.97C352.741 282.97 314.161 284.56 289.321 335.82C264.481 387.08 210.561 533.5 210.561 533.5C210.561 533.5 256.561 486.99 310.451 536.67L346.391 471.67L338.461 574.7H616.951V526.08C616.951 526.08 675.081 557.26 670.861 574.7C670.861 574.7 720.611 446.52 709.861 388.27C706.625 370.262 704.64 352.052 703.921 333.77C703.286 318.713 698.006 304.221 688.807 292.284C679.607 280.347 666.939 271.55 652.541 267.1C647.301 265.49 641.541 263.98 635.141 262.63C575.421 249.95 560.141 262.63 560.141 262.63C560.141 262.63 548.571 300.27 548.781 317.33C549.041 339.26 517.601 353.8 517.601 353.8C517.601 353.8 471.091 342.7 468.981 333.72C466.871 324.74 450.231 272.14 453.951 261.57Z" fill="#0A5CA5"/>
<path opacity="0.1" d="M557.369 257.08C553.118 245.044 552.165 232.089 554.609 219.56L449.949 238.05C449.949 238.05 451.459 245.96 453.169 257.81C459.932 264.827 468.05 270.395 477.032 274.176C486.014 277.957 495.671 279.872 505.416 279.803C515.161 279.735 524.79 277.685 533.718 273.779C542.646 269.873 550.686 264.191 557.349 257.08H557.369Z" fill="black"/>
<path d="M575.22 203.17C575.335 212.608 573.589 221.976 570.083 230.74C566.576 239.503 561.378 247.49 554.785 254.245C548.192 260.999 540.334 266.389 531.658 270.106C522.982 273.824 513.659 275.796 504.22 275.91C494.782 276.024 485.414 274.278 476.651 270.772C467.887 267.266 459.9 262.068 453.146 255.475C439.504 242.16 431.711 223.971 431.48 204.91C431.49 204.33 431.49 203.75 431.49 203.17C431.485 192.709 433.764 182.373 438.168 172.884C442.572 163.395 448.995 154.982 456.988 148.233C464.981 141.484 474.351 136.561 484.443 133.809C494.536 131.057 505.108 130.542 515.42 132.3C531.341 135.011 545.884 143.009 556.7 155.002C567.515 166.996 573.973 182.285 575.03 198.4C575.157 199.98 575.22 201.57 575.22 203.17Z" fill="#FFB9B9"/>
<path d="M478.31 135.8L478.41 135.74C464.631 140.83 452.743 150.024 444.351 162.082C435.96 174.139 431.467 188.48 431.48 203.17C431.48 203.75 431.48 204.33 431.48 204.91C433.715 204.85 435.912 204.322 437.93 203.36C455.45 195.18 465.93 170.16 470.09 152.71C471.59 146.5 473 139.43 478.31 135.8Z" fill="#090814"/>
<path d="M533.32 137.82C527.631 135.206 521.623 133.354 515.45 132.31C520.512 133.475 525.033 136.315 528.28 140.37C529.871 142.534 531.191 144.885 532.21 147.37C522.644 143.188 512.285 141.133 501.847 141.349C491.41 141.565 481.144 144.046 471.76 148.62C476.27 158.51 490.26 163.9 499.6 167.51C509.826 171.457 520.16 175.067 530.6 178.34L521.36 170.84L542.23 174.16C542.454 170.006 541.96 165.845 540.77 161.86C544.77 165.08 550.07 166.16 554.41 168.86C562.54 173.99 565.93 183.86 570.36 192.41C571.53 194.67 572.91 196.98 575.02 198.41C574.167 185.492 569.842 173.044 562.503 162.38C555.163 151.716 545.081 143.23 533.32 137.82Z" fill="#090814"/>
<path d="M423.279 189.69C423.279 189.69 497.279 97.69 582.889 189.69L575.489 169.08C575.489 169.08 535.319 110.42 506.789 123.08C478.259 135.74 450.239 144.75 450.239 144.75L423.279 189.69Z" fill="#CACACA"/>
<path opacity="0.1" d="M362.499 387.88C362.499 387.88 346.649 430.16 368.839 468.21C391.029 506.26 349.289 522.12 349.289 522.12" fill="black"/>
<path opacity="0.1" d="M619.349 349.83C619.349 349.83 646.829 384.71 628.859 415.89C610.889 447.07 611.949 522.12 611.949 522.12" fill="black"/>
<path d="M338.19 553.3H643.66C650.389 553.3 656.842 555.973 661.599 560.731C666.357 565.489 669.03 571.942 669.03 578.67H312.83C312.83 571.943 315.502 565.492 320.257 560.734C325.013 555.977 331.463 553.303 338.19 553.3Z" fill="#090814"/>
<path d="M369.27 378.89H612.59C617.711 378.89 622.782 379.899 627.514 381.859C632.246 383.819 636.545 386.691 640.167 390.313C643.788 393.934 646.661 398.234 648.621 402.965C650.581 407.697 651.59 412.768 651.59 417.89V559.11H330.27V417.89C330.27 407.547 334.378 397.627 341.692 390.313C349.006 382.999 358.926 378.89 369.27 378.89Z" fill="#090814"/>
<path d="M490.659 495.96C501.169 495.96 509.689 487.44 509.689 476.93C509.689 466.42 501.169 457.9 490.659 457.9C480.149 457.9 471.629 466.42 471.629 476.93C471.629 487.44 480.149 495.96 490.659 495.96Z" fill="white"/>
<path opacity="0.1" d="M427.51 148.2C427.51 148.2 500.23 75.5199 578.66 146.87" stroke="black" stroke-miterlimit="10"/>
<path d="M597.03 143.57H589.73V184.96H597.03V143.57Z" fill="#CACACA"/>
<path d="M579.99 170.35C586.663 170.35 593.063 173.001 597.781 177.719C602.499 182.438 605.15 188.837 605.15 195.51V197.13C605.15 203.803 602.499 210.202 597.781 214.921C593.063 219.639 586.663 222.29 579.99 222.29V170.35Z" fill="#0A5CA5"/>
<path d="M586.479 173.6C586.479 170.463 583.936 167.92 580.799 167.92C577.662 167.92 575.119 170.463 575.119 173.6V219.05C575.119 222.187 577.662 224.73 580.799 224.73C583.936 224.73 586.479 222.187 586.479 219.05V173.6Z" fill="#090814"/>
<path d="M408.389 185.77H415.689V144.38H408.389V185.77Z" fill="#CACACA"/>
<path d="M425.43 223.1C418.757 223.1 412.357 220.449 407.639 215.731C402.921 211.012 400.27 204.613 400.27 197.94V196.32C400.27 193.016 400.92 189.744 402.185 186.692C403.449 183.639 405.303 180.865 407.639 178.529C409.975 176.193 412.749 174.34 415.801 173.075C418.854 171.811 422.126 171.16 425.43 171.16V223.1Z" fill="#0A5CA5"/>
<path d="M418.939 219.85C418.939 222.987 421.482 225.53 424.619 225.53C427.756 225.53 430.299 222.987 430.299 219.85V174.4C430.299 171.263 427.756 168.72 424.619 168.72C421.482 168.72 418.939 171.263 418.939 174.4V219.85Z" fill="#090814"/>
<path d="M588.869 99.33C578.979 78.77 557.439 53.91 511.009 51.92V51.86H510.449L493.999 52.64V52.72C447.879 54.84 426.439 79.61 416.579 100.1C410.013 113.99 406.526 129.136 406.359 144.5L412.039 144.36L417.719 144.23C417.965 130.552 421.111 117.082 426.949 104.71C439.469 78.99 462.509 65.32 495.419 64.05L509.969 63.24C542.899 64.5 565.949 78.19 578.459 103.9C584.308 116.276 587.461 129.754 587.709 143.44L593.389 143.57L599.069 143.71C598.906 128.355 595.427 113.216 588.869 99.33Z" fill="#0A5CA5"/>
<path d="M848.36 579H73.6504V787H848.36V579Z" fill="#D6D6E3"/>
<path opacity="0.1" d="M848.36 593H73.6504V615H848.36V593Z" fill="black"/>
<path d="M900.31 576H21.6797V603H900.31V576Z" fill="#D6D6E3"/>
</g>
<defs>
<clipPath id="clip0_511_600">
<rect width="900.31" height="787" fill="white"/>
</clipPath>
</defs>
</svg>
